<svg width="24" height="24" viewBox="0 0 24 24" fill="none" xmlns="http://www.w3.org/2000/svg">
<g id="Frame">
<path id="Vector" d="M12.1509 20.4001C11.9259 20.4001 11.6259 20.3251 11.4009 20.2501L7.80095 18.6001C7.27595 18.3751 6.97595 17.8501 6.97595 17.3251L6.75095 10.5001L2.77595 6.7501C2.25095 6.1501 2.10095 5.4001 2.40095 4.7251C2.70095 4.0501 3.37595 3.6001 4.05095 3.6001H16.2759C17.0259 3.6001 17.6259 4.0501 17.9259 4.7251C18.2259 5.4001 18.0759 6.1501 17.5509 6.6751L13.9509 10.5001V18.5251C13.9509 19.1251 13.6509 19.7251 13.1259 20.0251C12.8259 20.2501 12.4509 20.4001 12.1509 20.4001ZM4.05095 5.1001C3.90095 5.1001 3.82595 5.2501 3.75095 5.3251C3.67595 5.4001 3.75095 5.5501 3.82595 5.6251L7.80095 9.4501C8.10095 9.7501 8.25095 10.1251 8.25095 10.5001L8.47595 17.2501L12.0009 18.9001C12.1509 18.9751 12.2259 18.9001 12.3009 18.9001C12.3759 18.9001 12.4509 18.7501 12.4509 18.6751V10.5001C12.4509 10.1251 12.6009 9.7501 12.8259 9.5251L16.5009 5.6251C16.6509 5.4751 16.5759 5.3251 16.5759 5.3251C16.5759 5.2501 16.5009 5.1001 16.2759 5.1001H4.05095Z" fill="#3750C8"/>
<path id="Vector_2" d="M21.0008 14.175H16.4258C15.9758 14.175 15.6758 13.875 15.6758 13.425C15.6758 12.975 15.9758 12.675 16.4258 12.675H21.0008C21.4508 12.675 21.7508 12.975 21.7508 13.425C21.7508 13.875 21.4508 14.175 21.0008 14.175ZM21.0008 17.7H16.4258C15.9758 17.7 15.6758 17.4 15.6758 16.95C15.6758 16.5 15.9758 16.2 16.4258 16.2H21.0008C21.4508 16.2 21.7508 16.5 21.7508 16.95C21.7508 17.4 21.4508 17.7 21.0008 17.7Z" fill="#3750C8"/>
</g>
</svg>
